<svg version="1.1" xmlns="http://www.w3.org/2000/svg" viewBox="0 0 410.79072905122143 367.3695369344191" width="410.79072905122143" height="367.3695369344191" class="excalidraw-svg">
  <!-- svg-source:excalidraw -->
  
  <defs>
    <style class="style-fonts">
      @font-face {
        font-family: "Virgil";
        src: url("https://excalidraw.com/Virgil.woff2");
      }
      @font-face {
        font-family: "Cascadia";
        src: url("https://excalidraw.com/Cascadia.woff2");
      }
      @font-face {
        font-family: "Assistant";
        src: url("https://excalidraw.com/Assistant-Regular.woff2");
      }
    </style>
    
  </defs>
  <rect x="0" y="0" width="410.79072905122143" height="367.3695369344191" fill="#ffffff"/><g stroke-linecap="round" transform="translate(86.97393147978607 10) rotate(0 97.69768226280536 84.86869368284101)"><path d="M32 0 C72.98 -0.81, 109.95 1.4, 163.4 0 M32 0 C65.43 -0.17, 99.54 0.41, 163.4 0 M163.4 0 C185.49 -1.71, 196.96 9.94, 195.4 32 M163.4 0 C185.1 1.85, 197.04 8.56, 195.4 32 M195.4 32 C196.57 62.68, 197.36 91.34, 195.4 137.74 M195.4 32 C195.09 71.58, 193.76 113.84, 195.4 137.74 M195.4 137.74 C193.58 157.77, 185.89 170.03, 163.4 169.74 M195.4 137.74 C193.83 160.52, 186.46 170.27, 163.4 169.74 M163.4 169.74 C134.46 171.38, 106.63 168.44, 32 169.74 M163.4 169.74 C113.36 169.92, 62.31 170.92, 32 169.74 M32 169.74 C9.38 170.07, -0.59 158.3, 0 137.74 M32 169.74 C12.82 169.26, -0.73 158.49, 0 137.74 M0 137.74 C-1.71 106.37, 0.94 69.31, 0 32 M0 137.74 C0.76 99.83, 0.59 61.65, 0 32 M0 32 C1.87 10.2, 12.47 0.69, 32 0 M0 32 C1.73 11.32, 8.77 -0.43, 32 0" stroke="#1e1e1e" stroke-width="4" fill="none"/></g><g stroke-linecap="round" transform="translate(187.63214956873696 67.23702597214856) rotate(0 106.57928974124223 119.40827832120652)"><path d="M32 0 C68.22 -2.14, 106.58 -0.79, 181.16 0 M32 0 C82.6 -1.3, 132.25 -0.22, 181.16 0 M181.16 0 C200.76 -0.66, 213.27 8.8, 213.16 32 M181.16 0 C203.89 0.66, 213.13 11.08, 213.16 32 M213.16 32 C214.79 94.25, 211.09 151.07, 213.16 206.82 M213.16 32 C213.18 86.59, 212.49 144.12, 213.16 206.82 M213.16 206.82 C213.28 227.9, 204.4 237.18, 181.16 238.82 M213.16 206.82 C214.6 227.19, 201.34 239.89, 181.16 238.82 M181.16 238.82 C139.19 240.04, 99.03 241.68, 32 238.82 M181.16 238.82 C141.45 237.93, 102.5 238.21, 32 238.82 M32 238.82 C9.33 237.96, 1.78 226.69, 0 206.82 M32 238.82 C11.58 237.01, 0.97 230.3, 0 206.82 M0 206.82 C-1.03 170.75, -3.2 135.47, 0 32 M0 206.82 C2.1 149.27, 0.68 91.02, 0 32 M0 32 C-0.2 12.22, 10.71 1.51, 32 0 M0 32 C0.63 11.95, 8.96 1.01, 32 0" stroke="#1e1e1e" stroke-width="4" fill="none"/></g><g stroke-linecap="round" transform="translate(10 207.36905507637448) rotate(0 133.2241121765528 75.00024092902231)"><path d="M32 0 C74.92 1.6, 116.82 1.01, 234.45 0 M32 0 C84.1 -0.63, 137.14 -1.12, 234.45 0 M234.45 0 C256.13 0.63, 268.43 9.91, 266.45 32 M234.45 0 C255.58 -1.03, 265 10.16, 266.45 32 M266.45 32 C265.64 55.34, 265.04 75.91, 266.45 118 M266.45 32 C265.82 51.79, 266.68 70.22, 266.45 118 M266.45 118 C265.51 137.45, 254.69 150.6, 234.45 150 M266.45 118 C264.71 141.26, 257.57 150.36, 234.45 150 M234.45 150 C187.96 149.85, 140.05 150.3, 32 150 M234.45 150 C162.2 151, 90.37 151.41, 32 150 M32 150 C10.21 149.68, -1.37 140, 0 118 M32 150 C10.51 149.47, 1.95 139.46, 0 118 M0 118 C-1.08 96.75, -0.24 77.3, 0 32 M0 118 C-0.08 96.96, -0.31 74.17, 0 32 M0 32 C0.64 8.8, 10.06 1.16, 32 0 M0 32 C1.72 8.82, 12.9 1.92, 32 0" stroke="#1e1e1e" stroke-width="4" fill="none"/></g></svg>